<mxfile host="65bd71144e">
    <diagram id="FCGlnajyCNwjFbMMkbbG" name="第 1 页">
        <mxGraphModel dx="668" dy="694" grid="1" gridSize="10" guides="1" tooltips="1" connect="1" arrows="1" fold="1" page="1" pageScale="1" pageWidth="827" pageHeight="1169" math="0" shadow="0">
            <root>
                <mxCell id="0"/>
                <mxCell id="1" parent="0"/>
                <mxCell id="5" style="edgeStyle=none;html=1;exitX=0.5;exitY=1;exitDx=0;exitDy=0;entryX=0.5;entryY=0;entryDx=0;entryDy=0;entryPerimeter=0;startArrow=oval;startFill=1;endArrow=open;endFill=0;" parent="1" source="3" target="4" edge="1">
                    <mxGeometry relative="1" as="geometry"/>
                </mxCell>
                <mxCell id="3" value="&lt;div style=&quot;color: rgb(186, 190, 216); background-color: rgb(41, 45, 62); font-family: &amp;quot;Fira Code&amp;quot;, Consolas, &amp;quot;Microsoft Yahei&amp;quot;, Consolas, &amp;quot;Courier New&amp;quot;, monospace; font-size: 14px; line-height: 19px;&quot;&gt;&lt;span style=&quot;color: #82aaff;&quot;&gt;registerAccount&lt;/span&gt;&lt;/div&gt;&lt;div style=&quot;color: rgb(186, 190, 216); background-color: rgb(41, 45, 62); font-family: &amp;quot;Fira Code&amp;quot;, Consolas, &amp;quot;Microsoft Yahei&amp;quot;, Consolas, &amp;quot;Courier New&amp;quot;, monospace; font-size: 14px; line-height: 19px;&quot;&gt;&lt;div style=&quot;line-height: 19px;&quot;&gt;&lt;div style=&quot;line-height: 19px;&quot;&gt;&lt;div&gt;&lt;span style=&quot;color: #ffcb6b;&quot;&gt;（address&lt;/span&gt; &lt;span style=&quot;font-style: italic;&quot;&gt;_account&lt;/span&gt;&lt;span style=&quot;color: #89ddff;&quot;&gt;,&lt;/span&gt;&lt;/div&gt;&lt;div&gt;&amp;nbsp; &amp;nbsp;&lt;span style=&quot;color: #ffcb6b;&quot;&gt;bytes&lt;/span&gt; &lt;span style=&quot;color: #c792ea;&quot;&gt;calldata&lt;/span&gt; &lt;span style=&quot;font-style: italic;&quot;&gt;_signature）&lt;/span&gt;&lt;/div&gt;&lt;/div&gt;&lt;/div&gt;&lt;/div&gt;" style="rounded=1;whiteSpace=wrap;html=1;strokeColor=#3399FF;" parent="1" vertex="1">
                    <mxGeometry x="63.75" y="190" width="272.5" height="90" as="geometry"/>
                </mxCell>
                <mxCell id="4" value="&lt;div style=&quot;background-color: rgb(41, 45, 62); font-family: &amp;quot;Fira Code&amp;quot;, Consolas, &amp;quot;Microsoft Yahei&amp;quot;, Consolas, &amp;quot;Courier New&amp;quot;, monospace; font-size: 14px; line-height: 19px;&quot;&gt;&lt;div style=&quot;line-height: 19px;&quot;&gt;&lt;div style=&quot;color: rgb(186, 190, 216); line-height: 19px;&quot;&gt;&lt;div style=&quot;line-height: 19px;&quot;&gt;registeredAccounts&lt;/div&gt;&lt;/div&gt;&lt;div style=&quot;color: rgb(186, 190, 216); line-height: 19px;&quot;&gt;&lt;span style=&quot;color: #c792ea;&quot;&gt;mapping&lt;/span&gt;&lt;span style=&quot;color: #89ddff;&quot;&gt;(&lt;/span&gt;&lt;span style=&quot;color: #ffcb6b;&quot;&gt;address&lt;/span&gt; &lt;span style=&quot;color: #89ddff;&quot;&gt;=&amp;gt;&lt;/span&gt; &lt;span style=&quot;color: #ffcb6b;&quot;&gt;bool&lt;/span&gt;&lt;span style=&quot;color: #89ddff;&quot;&gt;)&lt;/span&gt;&lt;/div&gt;&lt;/div&gt;&lt;/div&gt;" style="shape=cylinder3;whiteSpace=wrap;html=1;boundedLbl=1;backgroundOutline=1;size=15;strokeColor=#99FFCC;" parent="1" vertex="1">
                    <mxGeometry x="75" y="390" width="250" height="160" as="geometry"/>
                </mxCell>
                <mxCell id="6" value="&lt;div style=&quot;background-color: rgb(41, 45, 62); font-family: &amp;quot;Fira Code&amp;quot;, Consolas, &amp;quot;Microsoft Yahei&amp;quot;, Consolas, &amp;quot;Courier New&amp;quot;, monospace; font-size: 14px; line-height: 19px;&quot;&gt;&lt;div style=&quot;line-height: 19px;&quot;&gt;&lt;div style=&quot;color: rgb(186, 190, 216); line-height: 19px;&quot;&gt;&lt;div style=&quot;line-height: 19px;&quot;&gt;&lt;span style=&quot;color: rgb(255, 203, 107);&quot;&gt;SparseMerkleTree&lt;/span&gt;&lt;span style=&quot;color: rgba(0, 0, 0, 0); font-family: monospace; font-size: 0px; text-align: start; background-color: rgb(42, 37, 47);&quot;&gt;%3CmxGraphModel%3E%3Croot%3E%3CmxCell%20id%3D%220%22%2F%3E%3CmxCell%20id%3D%221%22%20parent%3D%220%22%2F%3E%3CmxCell%20id%3D%222%22%20value%3D%22%26lt%3Bdiv%20style%3D%26quot%3Bbackground-color%3A%20rgb(41%2C%2045%2C%2062)%3B%20font-family%3A%20%26amp%3Bquot%3BFira%20Code%26amp%3Bquot%3B%2C%20Consolas%2C%20%26amp%3Bquot%3BMicrosoft%20Yahei%26amp%3Bquot%3B%2C%20Consolas%2C%20%26amp%3Bquot%3BCourier%20New%26amp%3Bquot%3B%2C%20monospace%3B%20font-size%3A%2014px%3B%20line-height%3A%2019px%3B%26quot%3B%26gt%3B%26lt%3Bdiv%20style%3D%26quot%3Bline-height%3A%2019px%3B%26quot%3B%26gt%3B%26lt%3Bdiv%20style%3D%26quot%3Bcolor%3A%20rgb(186%2C%20190%2C%20216)%3B%20line-height%3A%2019px%3B%26quot%3B%26gt%3B%26lt%3Bdiv%20style%3D%26quot%3Bline-height%3A%2019px%3B%26quot%3B%26gt%3BregisteredAccounts%26lt%3B%2Fdiv%26gt%3B%26lt%3B%2Fdiv%26gt%3B%26lt%3Bdiv%20style%3D%26quot%3Bcolor%3A%20rgb(186%2C%20190%2C%20216)%3B%20line-height%3A%2019px%3B%26quot%3B%26gt%3B%26lt%3Bspan%20style%3D%26quot%3Bcolor%3A%20%23c792ea%3B%26quot%3B%26gt%3Bmapping%26lt%3B%2Fspan%26gt%3B%26lt%3Bspan%20style%3D%26quot%3Bcolor%3A%20%2389ddff%3B%26quot%3B%26gt%3B(%26lt%3B%2Fspan%26gt%3B%26lt%3Bspan%20style%3D%26quot%3Bcolor%3A%20%23ffcb6b%3B%26quot%3B%26gt%3Baddress%26lt%3B%2Fspan%26gt%3B%20%26lt%3Bspan%20style%3D%26quot%3Bcolor%3A%20%2389ddff%3B%26quot%3B%26gt%3B%3D%26amp%3Bgt%3B%26lt%3B%2Fspan%26gt%3B%20%26lt%3Bspan%20style%3D%26quot%3Bcolor%3A%20%23ffcb6b%3B%26quot%3B%26gt%3Bbool%26lt%3B%2Fspan%26gt%3B%26lt%3Bspan%20style%3D%26quot%3Bcolor%3A%20%2389ddff%3B%26quot%3B%26gt%3B)%26lt%3B%2Fspan%26gt%3B%26lt%3B%2Fdiv%26gt%3B%26lt%3B%2Fdiv%26gt%3B%26lt%3B%2Fdiv%26gt%3B%22%20style%3D%22shape%3Dcylinder3%3BwhiteSpace%3Dwrap%3Bhtml%3D1%3BboundedLbl%3D1%3BbackgroundOutline%3D1%3Bsize%3D15%3BstrokeColor%3D%2399FFCC%3B%22%20vertex%3D%221%22%20parent%3D%221%22%3E%3CmxGeometry%20x%3D%2275%22%20y%3D%22390%22%20width%3D%22250%22%20height%3D%22160%22%20as%3D%22geometry%22%2F%3E%3C%2FmxCell%3E%3C%2Froot%3E%3C%2FmxGraphModel%3E&lt;/span&gt;&lt;br&gt;&lt;/div&gt;&lt;/div&gt;&lt;div style=&quot;color: rgb(186, 190, 216); line-height: 19px;&quot;&gt;&lt;div style=&quot;line-height: 19px;&quot;&gt;&lt;div&gt;&lt;span style=&quot;color: #ffcb6b;&quot;&gt;bytes32&lt;/span&gt; root&lt;span style=&quot;color: #89ddff;&quot;&gt;;&lt;/span&gt;&lt;/div&gt;&lt;div&gt;&lt;span style=&quot;color: rgb(255, 203, 107);&quot;&gt;uint256&lt;/span&gt; height&lt;span style=&quot;color: rgb(137, 221, 255);&quot;&gt;;&lt;/span&gt;&lt;/div&gt;&lt;div&gt;&lt;span style=&quot;color: rgb(199, 146, 234);&quot;&gt;mapping&lt;/span&gt;&lt;span style=&quot;color: rgb(137, 221, 255);&quot;&gt;(&lt;/span&gt;&lt;span style=&quot;color: rgb(255, 203, 107);&quot;&gt;bytes32&lt;/span&gt; &lt;span style=&quot;color: rgb(137, 221, 255);&quot;&gt;=&amp;gt;&lt;/span&gt; &lt;span style=&quot;color: rgb(255, 203, 107);&quot;&gt;bytes32&lt;/span&gt;&lt;span style=&quot;color: rgb(137, 221, 255);&quot;&gt;)&lt;/span&gt; nodes&lt;span style=&quot;color: rgb(137, 221, 255);&quot;&gt;;&lt;/span&gt;&lt;/div&gt;&lt;/div&gt;&lt;/div&gt;&lt;/div&gt;&lt;/div&gt;" style="shape=cylinder3;whiteSpace=wrap;html=1;boundedLbl=1;backgroundOutline=1;size=15;strokeColor=#99FFCC;" parent="1" vertex="1">
                    <mxGeometry x="410" y="390" width="330" height="160" as="geometry"/>
                </mxCell>
                <mxCell id="7" style="edgeStyle=none;html=1;exitX=0.5;exitY=1;exitDx=0;exitDy=0;entryX=0.5;entryY=0;entryDx=0;entryDy=0;entryPerimeter=0;startArrow=oval;startFill=1;endArrow=open;endFill=0;" edge="1" parent="1" source="8" target="6">
                    <mxGeometry relative="1" as="geometry">
                        <mxPoint x="210" y="400" as="targetPoint"/>
                    </mxGeometry>
                </mxCell>
                <mxCell id="8" value="&lt;div style=&quot;color: rgb(186, 190, 216); background-color: rgb(41, 45, 62); font-family: &amp;quot;Fira Code&amp;quot;, Consolas, &amp;quot;Microsoft Yahei&amp;quot;, Consolas, &amp;quot;Courier New&amp;quot;, monospace; font-size: 14px; line-height: 19px;&quot;&gt;&lt;div style=&quot;line-height: 19px;&quot;&gt;&lt;span style=&quot;color: #82aaff;&quot;&gt;getMerkleRoot&lt;/span&gt;&lt;/div&gt;&lt;div style=&quot;line-height: 19px;&quot;&gt;&lt;span style=&quot;color: #82aaff;&quot;&gt;（&lt;/span&gt;&lt;span style=&quot;color: rgb(255, 203, 107);&quot;&gt;bytes&lt;/span&gt;&lt;span style=&quot;color: rgb(137, 221, 255);&quot;&gt;[]&lt;/span&gt;&lt;span style=&quot;&quot;&gt; &lt;/span&gt;&lt;span style=&quot;color: rgb(199, 146, 234);&quot;&gt;calldata&lt;/span&gt;&lt;span style=&quot;&quot;&gt; &lt;/span&gt;&lt;span style=&quot;font-style: italic;&quot;&gt;_dataBlocks&lt;/span&gt;&lt;span style=&quot;color: rgb(130, 170, 255);&quot;&gt;）&lt;/span&gt;&lt;/div&gt;&lt;/div&gt;" style="rounded=1;whiteSpace=wrap;html=1;strokeColor=#3399FF;" vertex="1" parent="1">
                    <mxGeometry x="436.25" y="190" width="277.5" height="90" as="geometry"/>
                </mxCell>
            </root>
        </mxGraphModel>
    </diagram>
</mxfile>